HIERARCHY
ROOT Hips
{
	OFFSET 0.00 0.00 0.00
	CHANNELS 6 Xposition Yposition Zposition Xrotation Yrotation Zrotation
	JOINT LeftUpLeg
	{
		OFFSET 2.83210 0.00000 0.00000
		CHANNELS 3 Xrotation Yrotation Zrotation
		JOINT LeftLeg
		{
			OFFSET 0.00000 -16.27150 0.00000
			CHANNELS 3 Xrotation Yrotation Zrotation
			JOINT LeftFoot
			{
				OFFSET 0.00000 -14.95190 0.00000
				CHANNELS 3 Xrotation Yrotation Zrotation
				JOINT LeftToeBase
				{
					OFFSET 0.00000 -1.07991 4.03030
					CHANNELS 3 Xrotation Yrotation Zrotation
					End Site
					{
						OFFSET 0.00000 0.00000 2.95275
					}
				}
			}
		}
	}
	JOINT RightUpLeg
	{
		OFFSET -2.83210 0.00000 0.00000
		CHANNELS 3 Xrotation Yrotation Zrotation
		JOINT RightLeg
		{
			OFFSET 0.00000 -16.27150 0.00000
			CHANNELS 3 Xrotation Yrotation Zrotation
			JOINT RightFoot
			{
				OFFSET 0.00000 -14.95190 0.00000
				CHANNELS 3 Xrotation Yrotation Zrotation
				JOINT RightToeBase
				{
					OFFSET 0.00000 -1.07991 4.03030
					CHANNELS 3 Xrotation Yrotation Zrotation
					End Site
					{
						OFFSET 0.00000 0.00000 2.95275
					}
				}
			}
		}
	}
	JOINT Spine
	{
		OFFSET 0.00000 0.03937 0.00000
		CHANNELS 3 Xrotation Yrotation Zrotation
		JOINT Spine1
		{
			OFFSET 0.00000 8.01054 0.00000
			CHANNELS 3 Xrotation Yrotation Zrotation
			JOINT Neck
			{
				OFFSET 0.00000 8.21888 0.00000
				CHANNELS 3 Xrotation Yrotation Zrotation
				JOINT Head
				{
					OFFSET 0.00000 3.25664 0.00000
					CHANNELS 3 Xrotation Yrotation Zrotation
					End Site
					{
						OFFSET 0.00000 4.52755 0.00000
					}
				}
			}
			JOINT LeftShoulder
			{
				OFFSET 0.00000 8.21888 0.00000
				CHANNELS 3 Xrotation Yrotation Zrotation
				JOINT LeftArm
				{
					OFFSET 6.52904 -0.00002 0.00000
					CHANNELS 3 Xrotation Yrotation Zrotation
					JOINT LeftForeArm
					{
						OFFSET 10.44840 -0.00004 0.00000
						CHANNELS 3 Xrotation Yrotation Zrotation
						JOINT LeftHand
						{
							OFFSET 8.94727 -0.00003 0.00000
							CHANNELS 3 Xrotation Yrotation Zrotation
							JOINT LeftHandThumb
							{
								OFFSET 0.00000 0.00000 0.00000
								CHANNELS 3 Xrotation Yrotation Zrotation
								End Site
								{
									OFFSET 0.00000 0.00000 3.93700
								}
							}
							JOINT L_Wrist_End
							{
								OFFSET 3.93700 -0.00001 0.00000
								CHANNELS 3 Xrotation Yrotation Zrotation
							}
						}
					}
				}
			}
			JOINT RightShoulder
			{
				OFFSET 0.00000 8.21888 0.00000
				CHANNELS 3 Xrotation Yrotation Zrotation
				JOINT RightArm
				{
					OFFSET -6.52904 -0.00002 0.00000
					CHANNELS 3 Xrotation Yrotation Zrotation
					JOINT RightForeArm
					{
						OFFSET -10.44840 -0.00004 0.00000
						CHANNELS 3 Xrotation Yrotation Zrotation
						JOINT RightHand
						{
							OFFSET -8.94727 -0.00003 0.00000
							CHANNELS 3 Xrotation Yrotation Zrotation
							JOINT RightHandThumb
							{
								OFFSET 0.00000 0.00000 0.00000
								CHANNELS 3 Xrotation Yrotation Zrotation
								End Site
								{
									OFFSET 0.00000 0.00000 3.93700
								}
							}
							JOINT R_Wrist_End
							{
								OFFSET -5.39369 -0.00002 0.00000
								CHANNELS 3 Xrotation Yrotation Zrotation
							}
						}
					}
				}
			}
		}
	}
}
MOTION
Frames: 6
Frame Time: 0.033332
 48.9742 31.8541 -5.1141 61.6620 -84.7268 62.7968 12.6275 3.9648 -9.2001 4.1689 -0.0000 0.0000 -15.1656 13.4039 3.1427 15.0472 -0.0000 0.0000 -38.9999 5.0311 2.4951 24.1579 0.0000 0.0000 0.9036 -6.1917 30.9575 13.4661 0.0000 0.0000 -12.1344 -0.1221 -12.3673 18.2813 -7.4514 13.2469 -3.2042 29.4464 -2.8015 -47.0026 -45.5632 -22.3879 10.5535 10.5995 9.4194 111.6262 -61.8351 49.6172 -0.0004 -59.1381 -0.0002 4.3434 -22.4264 -10.8682 -0.0000 0.0000 -0.0000 -0.0000 0.0000 -0.0000 18.6539 -21.0829 4.9038 39.4115 44.0659 -5.3860 -179.9983 82.7398 179.9981 35.4002 3.6492 6.7893 -0.0000 0.0000 -0.0000 -0.0000 0.0000 -0.0000
 47.1197 31.3759 -5.0645 65.7108 -85.0471 67.2618 15.7143 7.3113 -9.7097 6.6059 -0.0000 -0.0000 -16.6506 11.7204 2.8922 15.0472 -0.0000 0.0000 -34.2166 2.1647 2.9779 8.1417 0.0000 0.0000 0.6372 0.5644 34.3865 11.2089 0.0000 -0.0000 -12.8863 0.1818 -13.1623 19.2430 -6.9582 13.7001 -3.7813 29.3226 -3.4385 -45.8511 -47.1573 -21.2647 11.3628 10.1347 8.1726 109.8813 -60.6844 48.6055 -0.0004 -59.3141 -0.0002 2.2627 -24.7803 -10.7140 -0.0000 0.0000 -0.0000 -0.0000 0.0000 -0.0000 18.9052 -20.5507 5.7904 40.3891 44.1446 -7.1121 -179.9980 84.0717 179.9978 33.6564 3.6220 7.6556 -0.0000 0.0000 -0.0000 -0.0000 0.0000 -0.0000
 45.1708 31.0421 -5.0489 72.6620 -84.9645 74.1863 17.2861 11.9933 -9.1004 11.5875 0.0000 -0.0000 -15.9037 8.1701 1.0999 8.6268 -0.0000 0.0000 -30.8992 1.5652 4.5856 1.0281 0.0000 0.0000 1.9201 -4.9617 29.0870 12.5896 0.0000 0.0000 -13.5344 0.6335 -13.3941 19.2308 -6.4900 13.8874 -4.3559 28.6802 -3.4834 -44.9944 -47.8221 -20.6262 11.9641 10.0676 7.0361 108.5592 -59.3130 47.7852 -0.0004 -59.6311 -0.0002 0.0375 -26.4175 -11.0089 -0.0000 0.0000 -0.0000 -0.0000 0.0000 -0.0000 19.7636 -19.8029 6.5614 40.8167 44.0775 -7.5537 -179.9969 86.0789 179.9967 31.9352 4.6620 7.7479 -0.0000 0.0000 -0.0000 -0.0000 0.0000 -0.0000
 43.0067 30.9040 -4.9546 74.2326 -85.0395 75.4258 17.6920 15.8877 -7.3528 18.4840 -0.0000 0.0000 -10.5900 4.2929 -0.1703 0.9647 0.0000 0.0000 -26.9719 5.1510 5.4021 -0.0756 0.0000 0.0000 2.4034 -10.0549 23.4589 12.2278 -0.0000 0.0000 -13.5516 0.6810 -13.1811 18.0962 -6.2673 14.3881 -6.2260 27.9393 -3.1539 -41.9975 -47.7834 -20.1061 12.1986 10.8192 6.3665 107.7932 -59.8179 46.6963 -0.0004 -59.4240 -0.0002 0.2181 -26.6248 -12.5802 -0.0000 0.0000 -0.0000 -0.0000 0.0000 -0.0000 19.7823 -19.6761 6.1012 41.7802 43.9584 -7.3001 -179.9948 87.6774 179.9946 27.7373 5.8668 5.7928 -0.0000 0.0000 -0.0000 -0.0000 0.0000 -0.0000
 40.7592 31.0160 -5.0247 71.1532 -84.5899 69.8569 13.1677 22.6931 -0.4440 29.5593 -0.0000 0.0000 0.7914 -2.9430 -1.3489 15.1340 0.0000 0.0000 -22.7147 10.4894 7.7117 -5.5091 0.0000 0.0000 12.5295 -12.2280 26.7368 13.0658 0.0000 -0.0000 -13.2701 0.2477 -12.2216 15.8847 -6.1582 16.2721 -7.9810 26.6061 -2.0497 -39.5475 -46.4261 -20.5668 12.2073 11.7800 6.2724 104.1861 -61.7610 42.3704 -0.0004 -60.4988 -0.0002 2.7848 -23.2779 -16.4177 -0.0000 0.0000 -0.0000 -0.0000 0.0000 -0.0000 19.3061 -19.8166 5.3057 42.4068 43.7519 -6.2112 -179.9926 88.3735 179.9924 25.1375 5.8244 6.3834 -0.0000 -0.0000 0.0000 -0.0000 -0.0000 0.0000
 38.6726 31.2652 -5.2459 69.3804 -84.0105 64.2090 2.4683 24.5719 10.1936 44.1862 -0.0000 0.0000 17.3849 -7.0368 -0.8242 4.3712 0.0000 -0.0000 -22.3610 15.3874 12.1288 -4.9721 -0.0000 -0.0000 16.9269 -16.2064 22.5353 18.0879 -0.0000 0.0000 -11.9126 -0.2869 -10.5416 12.6380 -6.2421 18.1678 -11.8110 25.5773 -0.1008 -34.9134 -45.8344 -20.6140 11.5666 13.5927 7.7472 100.5956 -64.2936 38.4470 -0.0004 -62.6748 -0.0002 7.5540 -16.9837 -22.2919 -0.0000 -0.0000 0.0000 -0.0000 -0.0000 0.0000 19.3973 -19.5828 4.6594 42.6352 43.8456 -5.3420 -179.9897 88.8349 179.9894 24.8735 6.5403 7.6896 -0.0000 -0.0000 0.0000 -0.0000 -0.0000 0.0000
